<?xml version="1.0" encoding="UTF-8"?>
<svg version="1.1" viewBox="0 0 1268 1148" width="1280" height="1280" xmlns="http://www.w3.org/2000/svg">
<path transform="translate(237,67)" d="m0 0h447l37 3 35 5 40 8 31 8 22 7 29 11 28 12 15 8 16 8 18 10 14 9 18 12 16 12 13 10 10 8 6 5v2l4 2 16 15 9 9 7 8 8 8 11 14 13 16 14 20 12 19 10 17 18 35 15 38 10 30 6 25 5 25 5 35 3 33 1 17v30l-2 30-3 30-5 32-5 24-7 27-7 21-15 38-10 21-12 22-9 16-7 10-10 16-9 11-13 17-18 21h-2l-2 4-9 9-4 5-8 7-20 18-13 10-19 14-14 10-21 13-10 6-27 14-15 8-28 12-26 10-22 7-44 11-43 8-33 4-34 2h-435l-1-4v-196l8-5 23-13 16-8 1-1h10l36 3h44l32-3 29-5 20-5 11-3 1 32h182l32-2 30-4 25-5 27-8 16-6 27-13 19-11 19-14 9-7 10-9 17-17 22-28 12-20 10-18 7-15 10-27 7-23 5-27 3-30v-56l-3-27-4-24-6-21-9-27-11-25-15-27-10-15-13-16-8-10-21-21-13-10-18-13-17-10-32-16-22-8-26-7-21-4-34-4-18-1h-188v53l-2 1-21-6-31-6-27-3-15-1h-42l-32 3-29 5-31 8-1-1z" fill="#1F6DD5"/>
<path transform="translate(341,339)" d="m0 0h22l31 2 28 4 25 6 29 9 24 9 31 16 21 13 10 8 12 9 10 9 23 23 15 20 7 10 13 23 10 22 7 24 4 21 2 28v11l-2 25-6 29-7 21-13 27-13 21-11 14-8 10-9 10-3 1-1 3-8 7-8 8-18 13-14 10-17 10-15 8-17 8-24 9-36 10-25 5-25 3-14 1h-38l-32-3-14-2h-5l-38 20-18 10-25 13-23 13-25 13-9 5h-2l-1-137-12-11-8-7-21-21-9-11-11-15-13-22-9-19-10-30-5-22-3-27v-14l3-27 6-25 9-27 8-18 14-22 9-13 11-14 8-8 6-7h2l2-4 8-7 12-10 19-14 15-9 24-13 17-8 28-10 37-10 33-5zm-139 206-9 2-9 6-6 5-7 11-3 11v7l4 13 8 11 9 6 9 3h15l11-4 6-4 8-9 4-10 1-4v-11l-3-10-6-10-10-8-9-4zm147 0-10 3-8 6-9 9-4 8-2 8v9l4 12 6 8 8 7 8 4 5 1h14l14-5 7-6 6-9 3-10v-14l-4-11-6-8-7-6-8-4-8-2zm148 0-11 4-8 6-7 7-5 10-2 12 2 10 5 10 8 9 11 6 5 1h14l14-5 9-8 6-12 2-9-1-12-4-10-9-10-10-6-10-3z" fill="#2296EC"/>
<path transform="translate(237,67)" d="m0 0h447l37 3 35 5v1l-18 1-11-1 9 2 17 4 6 3h9l2 3 5 2 2 3 7 2 4 2 2 10-3 4v5l-4 1-6-3-2 3 1 6 6 4-1 5-3 2-2-1-2 8-3 6-5 2-3 9-1 5 1 6 1 1 1 15 3 7 1 2v6l-4 2-1 7-3 7-1 3-6 1-1 15-1 5-8 3-3 1v4h2l2 18-3 4-11 2v3l-5 1-16-2-23-1-2 1 13 2 1 2-43-3h-188v53l-2 1-21-6-31-6-27-3-15-1h-42l-32 3-29 5-31 8-1-1z" fill="#2196EC"/>
<path transform="translate(465,869)" d="m0 0h2l1 32h182l32-2 16-2h6l-2 2 1 3 13-2h7l5-1 13-2 1-2 13-2 10-2 6-3 12-3 16-6 6-2h5l-1 4-8 2v2l-5 2v2h3l1 6-5 5v6l-2 1v9l-5 7h-4l4 4-3 5h-2l-2 10-5 12-3 3h2l1 5v3l3 4-2 9-2 2-1 6 4 3 3 14-1 10-2 7-4 4-5 8h-4l-4 6-4 5-2 3-5 3-4 7h-2l-1 9-1 7-3 9 2 4-4 4-3 1h-7v2l-11 3h-5v2l-11 4-1 1h-16l-38 3-26 1 73 1v1l-19 1h-435l-1-4v-196l8-5 23-13 16-8 1-1h10l36 3h44l32-3 29-5 20-5z" fill="#2397EC"/>
<path transform="translate(341,339)" d="m0 0h22l31 2 28 4 25 6 29 9 24 9 31 16 21 13 10 8 12 9 10 9 23 23 15 20 7 10 13 23 10 22 7 24 4 21 2 28v11l-2 25-6 29-7 21-13 27-13 21-11 14-8 10-9 10-3 1-1 3-8 7-8 8-18 13-14 10-17 10-15 8-17 8-24 9-36 10-25 5-15 2h-34v-4h2v-4l10-6-10-7-3-4v-9l5-1h2l-1-2-6-1 1-5 5-2 2-9 2-3v-8l1-5-1-5 1-8-2-12 1-6-2-5 2-6-1-12 1-11 2-6 1-7 2-9 3-12v-14l1-3h2l1-9 3-6v-5l-1-4 1-4 5-4 2-17 2-7v-3l-6 3-5-1v2l-7 1 6-10 5-7 3-10v-14l-4-11-6-8-9-7-13-4h-9l-10 3-8 6-5 3-4-1v-4h2l2-4 5-4 8-7 9-4h2v-2l10-2 3-2v-2l2-1-3-3 2-6-4-1-1-7 1-7 1-8 6-12-1-13-1-4 2-9v-19l1-5v-8l2-6 2-9 1-3h2v-2h2l2-5 7-12 1-5 2-3v-7l-1-5 1-3h3v-8l-6-2-9-4-22-4-36-2 4-1v-2zm156 206-11 4-8 6-7 7-5 10-2 12 2 10 5 10 8 9 11 6 5 1h14l14-5 9-8 6-12 2-9-1-12-4-10-9-10-10-6-10-3z" fill="#1F6DD5"/>
<path transform="translate(341,339)" d="m0 0h22l31 2v1h-12v2l7 2 10 1 7 1 9 5 13 3 2 2h-2l1 6-4 1-1 7-3 1v2h-2l1 5h3l1-3 4 1-1 5-6 8h-2l-1 4h-2v4l3 1-1 5-4 5-6-1v2h7l-2 6h-2l-2 6-1 2-3 1-3 6v4l4-2 3 5-1 13 1 10 1 9v10l-1 4-2 4-2 5 1 3-2 4 2 5-3 10-1 2 3 1 2 9v3l1 2 2 12 4 9-1 8 1 2-1 9 1 5-7 10h-2l-1 5 3 1 2 9 1 5 3 9 1 8 2 4v5l-3 9 1 5-1 7 1 2-1 3v12h-3l1 11-2 3 4 3-1 9-1 5v13l1 5-1 5 1 24 1 7 3 1v5l2 5-2 10-1 1v8l-4 7-1 11-1 2h-2l-1 3-7 3-4 6v9l5 2-3 2h-3v2l9 2 8 1-1 2 3 2-7 3-13 1-7 2-1 2-7 1-1 3-5 2 1 2h-12v-4h2v-4l10-6-10-7-3-4v-9l5-1h2l-1-2-6-1 1-5 5-2 2-9 2-3v-8l1-5-1-5 1-8-2-12 1-6-2-5 2-6-1-12 1-11 2-6 1-7 2-9 3-12v-14l1-3h2l1-9 3-6v-5l-1-4 1-4 5-4 2-17 2-7v-3l-6 3-5-1v2l-7 1 6-10 5-7 3-10v-14l-4-11-6-8-9-7-13-4h-9l-10 3-8 6-5 3-4-1v-4h2l2-4 5-4 8-7 9-4h2v-2l10-2 3-2v-2l2-1-3-3 2-6-4-1-1-7 1-7 1-8 6-12-1-13-1-4 2-9v-19l1-5v-8l2-6 2-9 1-3h2v-2h2l2-5 7-12 1-5 2-3v-7l-1-5 1-3h3v-8l-6-2-9-4-22-4-36-2 4-1v-2z" fill="#1F7BDD"/>
<path transform="translate(866,832)" d="m0 0 2 1-2 5-3 5-6 4h-2l-2 5-6 5-5 8h-4l2 3 5-1-3 4 1 1 4-2v3l3-1 2 2 1 5-2 5-1 5-3 6-4 4-5 11-5 2 1 4-3 5h-2l-1 6-3 4h-3l1 4-6 13-3 8v12l3 3 3 1v2h2l4 6v4h-4v-2l-5 1 1 6 3 12-3 12-2 3h-2l-2 8h-2l-2 4-4 9-4 1v2h2l-1 5-9 4-3-1-5 2v2l-4 4-1 3-3-1-2 1 2 6v7l5 1 4 2v2l6-1-3 3-7 3-13 4-12 4-12 2-16 3-5 1-1 1-16 2 1-2h4v-2l12-3h4v-2l10-2 4-5-3-1 2-9 2-3v-11l2-3h2l2-6 4-4 3-1 4-6 4-5 3-3 4-1 5-9 3-1 2-14-1-9-2-8-4-3 2-7 3-8-2-5-2-3 1-3v-3h-2l1-3 2-1 7-21 3-3 1-3-4-3 6-2 3-6v-8l2-2v-5l5-5v-6h-3v-2l-2-1 7-1v-2l5-2h3l1-4-13 4-14 5-12 3-6 3-15 3-8 1-9 3-9 1-1 1h-10l-10 1v-2l-3-1 6-3 31-6 27-8 6-1-1 3 10-3 7-3 6-2 6-3 5-3 7-3 4-2 11-7 6-3 1-2 10-5 3-3h2l2-4 4-4h7v-2l3-1z" fill="#1F7BDD"/>
<path transform="translate(726,75)" d="m0 0 20 2 2 1 13 2 20 5 4 2 9 1 2 2 14 4 3 2 10 3 6 3 7 2 2 1-1 2-3 1v2l-12-2v3l2 1v6l4 1 5-1v6l-2 4-1 7h4l5 6-4 4-5 2v2h-2l-1 5h-2l-1 5h-2l-1 2h-5l-1 5-2 2-2 7-2 4-2 12v9 3h2l1 11-2 7-1 8 3 1-2 4-1 7 3 2 3 5v8h-9l2 6-1 5-3-1-3-2v-2h-8l-2 4 1 6h-2l-1 5 5 4 4 6-2 3 8 3-1 2-6-2-4-1-22-8-14-4-15-2-2-1v-2l-6 1-1-2-3-2 9-2 5-1 2-4-1-12v-5h-2v-4l5-3 6-1v-12l2-8 6-2 1-6 3-6 1-5 3-2-1-7-3-7-1-15-2-4v-6l3-6 2-7 5-1 5-13 4-1 1-5-6-4-1-6 4-4 5 3h4l-1-5 3-5-2-9-4-2-7-2-2-3-5-2-4-2-9-1-5-2-17-5-7-1z" fill="#1F7CDE"/>
<path transform="translate(402,593)" d="m0 0 5 1 2 9 1 5 3 9 1 8 2 4v5l-3 9 1 5-1 7 1 2-1 3v12h-3l1 11-2 3 4 3-1 9-1 5v13l1 5-1 5 1 24 1 7 3 1v5l2 5-2 10-1 1v8l-4 7-1 11-1 2h-2l-1 3-7 3-4 6v9l5 2-3 2h-3v2l9 2 8 1-1 2 3 2-7 3-13 1-7 2-1 2-7 1-1 3-5 2 1 2h-12v-4h2v-4l10-6-10-7-3-4v-9l5-1h2l-1-2-6-1 1-5 5-2 2-9 2-3v-8l1-5-1-5 1-8-2-12 1-6-2-5 2-6-1-12 1-11 2-6 1-7 2-9 3-12v-14l1-3h2l1-9 3-6v-5l-1-4 1-4 5-4 2-17 2-7v-3l-6 3-5-1v2h-2l2-4 5-5 5-2 1-3 2-2 2-3h2z" fill="#1F7BDD"/>
<path transform="translate(1055,226)" d="m0 0 6 5 7 8 8 8 11 14 13 16 14 20 12 19 10 17 18 35 15 38 10 30 6 25 5 25 5 35 3 33 1 17v30l-2 30-3 30-5 32-5 24-7 27-7 21-15 38-10 21-4 7-2-4 3-8 4-12 3-4h2l-1-5 2-3h2v-6l2-9 3-4 4-13 1-8 3-4 2-10 3-9 2-7 2-10 3-12 1-6 3-14 3-23 2-7v-11l2-4v-14l1-11 2-12-1-21v-20l-1-3 1-3-1-10-3-19-1-17-2-8-1-6-2-20-1-5-4-17-5-17-3-7v-2l-5-11-3-10-6-15-5-13-7-15-8-16-2-5v-3h-2l-7-14-10-16-9-13v-2h-2l-6-10v-2h-2l-1-4-3-1-8-11-1-4h-2v-2h-2l-8-10-6-6v-2h-2v-2h-2l-2-4 1-3-4-4z" fill="#3A74CD"/>
<path transform="translate(350,535)" d="m0 0h10l14 5 4 3v2h2v2l5 1 8 7 4 6v2h2l3 7 2 9h3l2-3-1 6-6 11-2 4-3 3-2 3-4 2-1 2-3 3-5 4-1 3h-5l6-10 5-7 3-10v-14l-4-11-6-8-9-7-13-4h-9l-10 3-8 6-5 3-4-1v-4h2l2-4 5-4 8-7 10-2z" fill="#327BDA"/>
<path transform="translate(566,410)" d="m0 0 7 4 12 11 22 22 15 20 7 10 13 23 10 22 7 24 2 10-1 9-2-3-2-7-3-12-5-12-1-1-1-7-3-4-6-14-2-8h-2l-8-16-4-5v-3h-2l-1-4h-2l-10-14v-2l-4-2v-2h-2l-7-8-15-15-2-1v-2h-2v-2l-4-1-5-5z" fill="#477FD1"/>
<path transform="translate(237,67)" d="m0 0h369v1l-366 1-1 260-2-1z" fill="#FEFEFE"/>
<path transform="translate(137,786)" d="m0 0 4 2 3 3v135l2 1-4 1-1-137z" fill="#FEFEFE"/>
<path transform="translate(1020,194)" d="m0 0 5 3 7 6v2l4 2 16 15 3 4-1 2-5-2-4-4v-2l-4-1-5-4-5-6-10-8-2-5z" fill="#4E86D5"/>
<path transform="translate(836,331)" d="m0 0h4l11 7 12 11 8 7 7 7v5l-7-6-14-14-13-10-8-6z" fill="#6999DC"/>
<path transform="translate(341,339)" d="m0 0h22l31 2v1l-12 1h-34l-7-1-18-1v-1z" fill="#5798E3"/>
<path transform="translate(714,70)" d="m0 0 16 1 26 4v1l-18 1-26-2-4-1v-2l6-1z" fill="#5293E1"/>
<path transform="translate(635,68)" d="m0 0h64v2h6v1l-8 1-53-2-9-1z" fill="#2D86E1"/>
<path transform="translate(661,572)" d="m0 0h1l1 5v43l-1 7h-1l-1-13-1-5 1-34z" fill="#1A59C2"/>
<path transform="translate(1195,531)" d="m0 0h1l3 40v30l-1 19h-1l-1-48-1-27z" fill="#93C4F1"/>
<path transform="translate(656,656)" d="m0 0 1 4-7 21-4 8h-1l-1-6 7-20 2-5z" fill="#548AD6"/>
<path transform="translate(1086,912)" d="m0 0v3l-13 15-6 7-2-1 3-7 7-8 5-5 4-3z" fill="#6597DB"/>
<path transform="translate(740,889)" d="m0 0 4 1h-3l-2 4-5 2h-11l-17 1v-1l31-6z" fill="#70ABE9"/>
<path transform="translate(668,901)" d="m0 0h20l-3 2-16 2-21-1v-1z" fill="#2081E0"/>
<path transform="translate(698,897)" d="m0 0h6l-2 2 1 2h-4l-1 2h-13v-1l-15-1v-1z" fill="#70B0EC"/>
<path transform="translate(537,390)" d="m0 0 5 2 11 7 9 7-2 1-5-2-6-2-3-3-7-6z" fill="#6B9BDC"/>
<path transform="translate(290,345)" d="m0 0h11v2l-11 1-16 4-11 1v-2z" fill="#1F79DC"/>
<path transform="translate(767,881)" d="m0 0 3 1-6 6-8 2-12-1 4-2z" fill="#68A3E6"/>
<path transform="translate(714,70)" d="m0 0 16 1 7 1v1l-11 1v1h-14l-4-1v-2l6-1z" fill="#59A0E7"/>
<path transform="translate(127,419)" d="m0 0 2 1-29 29-5 6v-3l11-12 4-5 4-4h2l2-4 8-7z" fill="#C7E4F9"/>
<path transform="translate(1097,893)" d="m0 0 4 1-2 4-10 13-2-4 2-4h2l2-6z" fill="#5D90D8"/>
<path transform="translate(1127,850)" d="m0 0 2 4-8 12-4 4-2-2 5-7 2-5z" fill="#578CD7"/>
<path transform="translate(361,620)" d="m0 0h7v3l-6 1h-10l-9-2v-1z" fill="#1E73D9"/>
<path transform="translate(113,761)" d="m0 0 4 2 14 14 3 2v2l4 2-3 1-16-15-6-6z" fill="#1F7ADC"/>
<path transform="translate(888,380)" d="m0 0 6 2 8 11v5l-4-4-10-13z" fill="#6FA1E0"/>
<path transform="translate(704,897)" d="m0 0h12l-3 4-10 1v-2l-3-1z" fill="#1F77DB"/>
<path transform="translate(321,602)" d="m0 0 5 5 6 7-8-1-4-6z" fill="#79B5ED"/>
<path transform="translate(332,614)" d="m0 0 15 5 14 1v1l-20 1-4-4-5-3z" fill="#C7E1F7"/>
<path transform="translate(320,555)" d="m0 0h3v2l4-1h3l-9 9-2-4z" fill="#6BA9E9"/>
<path transform="translate(527,555)" d="m0 0 6 2 4 4 1 6 1 7-2-3-5-10z" fill="#ADC8EC"/>
<path transform="translate(682,274)" d="m0 0 13 1 4 2v1l-14-1-11-1v-1z" fill="#94CCF5"/>
<path transform="translate(1064,937)" d="m0 0v3l-10 10-3-2 8-8 4-2z" fill="#79A7E2"/>
<path transform="translate(698,897)" d="m0 0h6l-2 2 1 2h-4l-1 2-6-1 1-2-2-2z" fill="#61A5E9"/>
<path transform="translate(878,368)" d="m0 0 5 1 5 6v5l-5-5z" fill="#699DDF"/>
<path transform="translate(672,69)" d="m0 0h27l6 1v1l-8 1-5-1-20-1z" fill="#1E6ED6"/>
<path transform="translate(1041,958)" d="m0 0h2l-1 4-8 7-3-2 5-5h2v-2z" fill="#5A91DA"/>
<path transform="translate(328,613)" d="m0 0 5 2 7 4-1 2-8-2v-2l-4-2z" fill="#1E75DA"/>
<path transform="translate(316,588)" d="m0 0 2 4 3 10h-2l-5-6v-5z" fill="#6DADEB"/>
<path transform="translate(699,69)" d="m0 0h12l5 2v1l-12 1-5-3z" fill="#3B8FE3"/>
<path transform="translate(1112,874)" d="m0 0 2 1-2 5-4 6-1-2 1-5 2-4z" fill="#6799DC"/>
<path transform="translate(465,869)" d="m0 0h2v3l-17 4h-5l4-2z" fill="#FEFEFE"/>
<path transform="translate(706,277)" d="m0 0 16 3 1 2-10-1-13-2v-1z" fill="#9BCFF6"/>
<path transform="translate(370,616)" d="m0 0h5v2l-5 2v2h-2v-2h-7l4-2z" fill="#7EB0E9"/>
<path transform="translate(235,557)" d="m0 0 3 1 5 9 1 5-3-3-6-10z" fill="#1F7ADC"/>
<path transform="translate(271,349)" d="m0 0h7v2l-15 2v-2z" fill="#1E76DA"/>
<path transform="translate(314,576)" d="m0 0h1v15l-3-3 1-10z" fill="#1E6DD5"/>
<path transform="translate(675,901)" d="m0 0h13l-3 2-9 1z" fill="#1F74D9"/>
<path transform="translate(1104,886)" d="m0 0h3l-2 4-4 4-2-1 2-4z" fill="#6695DA"/>
<path transform="translate(377,612)" d="m0 0 2 1-2 3 2 2-6 3-3-1 5-2v-2l-2-1z" fill="#519AE5"/>
</svg>
